<svg width="70" height="72" viewBox="0 0 70 72" fill="none" xmlns="http://www.w3.org/2000/svg">
<g filter="url(#filter0_d_790_1784)">
<ellipse cx="35.0003" cy="22.7882" rx="16.7999" ry="17.7882" fill="#1A202C"/>
</g>
<path d="M40.625 23C40.625 24.4918 40.0324 25.9226 38.9775 26.9775C37.9226 28.0324 36.4918 28.625 35 28.625C33.5082 28.625 32.0774 28.0324 31.0225 26.9775C29.9676 25.9226 29.375 24.4918 29.375 23C29.375 22.6794 29.4087 22.3662 29.4669 22.0625H27.5V29.5569C27.5 30.0781 27.9219 30.5 28.4431 30.5H41.5588C41.8086 30.4995 42.048 30.3999 42.2244 30.2231C42.4009 30.0463 42.5 29.8067 42.5 29.5569V22.0625H40.5331C40.5912 22.3662 40.625 22.6794 40.625 23ZM35 26.75C35.4926 26.7499 35.9803 26.6527 36.4354 26.4641C36.8904 26.2755 37.3038 25.9991 37.652 25.6507C38.0003 25.3023 38.2764 24.8887 38.4648 24.4336C38.6532 23.9785 38.7501 23.4907 38.75 22.9981C38.7499 22.5055 38.6527 22.0178 38.4641 21.5628C38.2755 21.1077 37.9991 20.6943 37.6507 20.3461C37.3023 19.9979 36.8887 19.7217 36.4336 19.5333C35.9785 19.3449 35.4907 19.248 34.9981 19.2481C34.0033 19.2484 33.0493 19.6438 32.3461 20.3474C31.6428 21.051 31.2479 22.0052 31.2481 23C31.2484 23.9948 31.6438 24.9488 32.3474 25.652C33.051 26.3553 34.0052 26.7502 35 26.75ZM39.5 19.0625H41.7481C41.8975 19.0625 42.0407 19.0033 42.1465 18.8979C42.2523 18.7924 42.312 18.6494 42.3125 18.5V16.2519C42.3125 16.1022 42.253 15.9586 42.1472 15.8528C42.0414 15.747 41.8978 15.6875 41.7481 15.6875H39.5C39.3503 15.6875 39.2068 15.747 39.1009 15.8528C38.9951 15.9586 38.9356 16.1022 38.9356 16.2519V18.5C38.9375 18.8094 39.1906 19.0625 39.5 19.0625ZM35 5C30.2261 5 25.6477 6.89642 22.2721 10.2721C18.8964 13.6477 17 18.2261 17 23C17 27.7739 18.8964 32.3523 22.2721 35.7279C25.6477 39.1036 30.2261 41 35 41C37.3638 41 39.7044 40.5344 41.8883 39.6298C44.0722 38.7252 46.0565 37.3994 47.7279 35.7279C49.3994 34.0565 50.7252 32.0722 51.6298 29.8883C52.5344 27.7044 53 25.3638 53 23C53 20.6362 52.5344 18.2956 51.6298 16.1117C50.7252 13.9278 49.3994 11.9435 47.7279 10.2721C46.0565 8.60062 44.0722 7.27475 41.8883 6.37017C39.7044 5.46558 37.3638 5 35 5ZM44.375 30.2919C44.375 31.4375 43.4375 32.375 42.2919 32.375H27.7081C26.5625 32.375 25.625 31.4375 25.625 30.2919V15.7081C25.625 14.5625 26.5625 13.625 27.7081 13.625H42.2919C43.4375 13.625 44.375 14.5625 44.375 15.7081V30.2919Z" fill="white"/>
<defs>
<filter id="filter0_d_790_1784" x="0.200317" y="0" width="69.5999" height="71.5763" filterUnits="userSpaceOnUse" color-interpolation-filters="sRGB">
<feFlood flood-opacity="0" result="BackgroundImageFix"/>
<feColorMatrix in="SourceAlpha" type="matrix" values="0 0 0 0 0 0 0 0 0 0 0 0 0 0 0 0 0 0 127 0" result="hardAlpha"/>
<feOffset dy="13"/>
<feGaussianBlur stdDeviation="9"/>
<feColorMatrix type="matrix" values="0 0 0 0 0.0658854 0 0 0 0 0.0730469 0 0 0 0 0.1375 0 0 0 0.08 0"/>
<feBlend mode="normal" in2="BackgroundImageFix" result="effect1_dropShadow_790_1784"/>
<feBlend mode="normal" in="SourceGraphic" in2="effect1_dropShadow_790_1784" result="shape"/>
</filter>
</defs>
</svg>
