<svg xmlns="http://www.w3.org/2000/svg" viewBox="0 0 85.18 85"><defs><style>.cls-1{fill:#0a3e27;}</style></defs><g id="Capa_2" data-name="Capa 2"><g id="Capa_1-2" data-name="Capa 1"><path class="cls-1" d="M74.36,37.15A2.18,2.18,0,0,1,72.89,35c-.62-7.45-4.38-12.7-11.13-15.75a1.46,1.46,0,0,1-1-1.47,18,18,0,0,0-6.53-13.4A17.11,17.11,0,0,0,38.08.64c-7.94,2-12.91,8.35-13.62,16.9-.05.68-.05,1.22-.86,1.57-7,3.08-10.81,8.54-11.37,16.23A1.69,1.69,0,0,1,11,37C3.55,40.29-.55,47.3.06,55.64a18.21,18.21,0,0,0,13.4,15.93c1,.27,1.3.62,1.28,1.64-.06,3.46,0,6.93-.05,10.38,0,1.11.32,1.43,1.39,1.37a31.09,31.09,0,0,1,4,0c1.15.09,1.47-.32,1.46-1.48-.06-5.48-.1-10.95,0-16.42,0-1.41-.28-1.51-1.46-1.3A11.93,11.93,0,0,1,6.29,56.05,12.17,12.17,0,0,1,15.65,42a39.17,39.17,0,0,1,4-.29c-.2-.5-.37-.93-.53-1.36-3-7.75,2.91-16.53,11-16.18,1.76.08,1.76,0,1.17-1.69A12.1,12.1,0,0,1,39.25,6.72a12,12,0,0,1,15,8.82c.53,2.18.49,2.23-1.69,2.43-8.13.76-15.55,8.39-15.89,16.45a2.81,2.81,0,0,1-1.65,2.72,17.4,17.4,0,0,0-8.79,8.46,18.45,18.45,0,0,0,11.84,26c.91.24,1.21.59,1.2,1.55-.06,3.35,0,6.71-.06,10.07,0,1.3.21,1.9,1.65,1.73a16.57,16.57,0,0,1,3.52,0c1.23.1,1.68-.25,1.66-1.59-.07-5.48-.06-11,0-16.42,0-1.21-.27-1.45-1.46-1.21a11.7,11.7,0,0,1-12.1-5.16A12.07,12.07,0,0,1,32.59,47c2.72-4,6.57-5.56,11.47-5.27l-.42-1.16c-1.61-4.62-1-8.89,2.3-12.55a11.28,11.28,0,0,1,12.13-3.54c4.63,1.29,7.42,4.54,8.55,9.25.28,1.19.11,1.79-1.39,1.91a18.31,18.31,0,0,0-2.9,35.86c1.15.28,1.56.69,1.52,1.93-.1,3.19,0,6.4-.06,9.6,0,1.42.23,2.09,1.81,1.89a18.81,18.81,0,0,1,3.52,0c1.11.08,1.52-.24,1.5-1.45-.08-3.4,0-6.81-.06-10.22,0-1.07.31-1.47,1.34-1.79,6.93-2.17,11.41-6.76,12.9-14A18.15,18.15,0,0,0,74.36,37.15ZM66.94,65.79A12,12,0,1,1,78.86,53.87,11.82,11.82,0,0,1,66.94,65.79Z"/></g></g></svg>