<svg xmlns="http://www.w3.org/2000/svg" xmlns:xlink="http://www.w3.org/1999/xlink" viewBox="0 0 66.14 87.99"><defs><style>.cls-1{fill:none;}.cls-2{clip-path:url(#clip-path);}.cls-3{fill:#0a3e27;}</style><clipPath id="clip-path" transform="translate(0 0)"><rect class="cls-1" width="66.14" height="88"/></clipPath></defs><g id="Capa_2" data-name="Capa 2"><g id="Capa_1-2" data-name="Capa 1"><g class="cls-2"><path class="cls-3" d="M41.85,39.29l.29-.14a4.26,4.26,0,0,0,1.52-.9h.09l.06,0,.72-.13a3.56,3.56,0,0,1,1.79.74.07.07,0,0,0,0,.08,2.63,2.63,0,0,1-.14,2.52c-.63.41-1.27.8-1.91,1.21l.05,0-.05,0a.64.64,0,0,0-.5.26h0a1.43,1.43,0,0,0-.81.45l-.05,0a17,17,0,0,0-3,1.69l-.07,0a1.61,1.61,0,0,0-.82.49h0a.49.49,0,0,0-.4.21c-1,.55-2,1.12-3,1.64a1,1,0,0,0-.49,1c0,2.49,0,5,0,7.46,0,.62.21.77.78.45l11.14-6.26c1-.58,1-.59.45-1.65-.16-.3-.35-.59-.13-.93s.61-.29.93-.21c1.56.41,3.11.84,4.67,1.26a.61.61,0,0,1,.45.85c-.43,1.58-.87,3.16-1.36,4.72-.19.63-.73.65-1.2.15s-.29-1.12-.95-1.11-1,.43-1.4.68c-4.12,2.31-8.23,4.65-12.36,6.94a1.73,1.73,0,0,0-1,1.79c.07,2.24,0,4.48,0,6.73,0,1,.13,1.06,1,.57,5.41-3.1,10.91-6,16.26-9.24a2.32,2.32,0,0,1,3.17.68,2,2,0,0,1-1,2.82C48.28,67.66,42,71.22,35.69,74.75a.94.94,0,0,0-.51,1c0,3.24-.11,6.49,0,9.73A2.44,2.44,0,0,1,32.67,88c-6-.06-12.06,0-18.1,0H2.64C.73,88,0,87.25,0,85.36q0-9.23,0-18.45L0,24.1c0-.61,0-1.21,0-1.82a2,2,0,0,1,2.25-2.1c2.15,0,4.29,0,6.44,0l1.11,0c.77,0,1.14-.33,1.15-1.09,0-1.37.05-2.73.11-4.09C11.53,6,20.53-1.19,29.7.16,38.2,1.42,44,8,44,16.41c0,1.82,0,3.64,0,5.46s-.67,2.37-2.42,2.37c-4,0-8,0-12,0-2,0-4,0-6.07,0-1.87,0-2.57-.68-2.55-2.47,0-2.57-.12-5.15.11-7.72a25,25,0,0,1,1.67-5.33L24.2,6.52A5.28,5.28,0,0,1,25,6c1.46-.6,2.94-1,4.41,0h0a1.55,1.55,0,0,1-.61,1.4,2.5,2.5,0,0,0-.88,1.1h0a1.53,1.53,0,0,0-.72.93A11.37,11.37,0,0,0,25,15.8C25,16.92,25,18,25,19.16c0,.76.35,1.13,1.21,1.12,4,0,8.08,0,12.12,0,1.34,0,1.57-.21,1.56-1.53,0-2,.16-4.11-.54-6.12A12.32,12.32,0,0,0,29.15,4.16a18.74,18.74,0,0,0-2.7,0,5.61,5.61,0,0,0-3,.54,12.06,12.06,0,0,0-8.31,11.45c0,1.91,0,3.81,0,5.73a2.07,2.07,0,0,1-2.32,2.32c-2.42,0-4.85,0-7.27,0-.51,0-1.09-.08-1.29.6a1.63,1.63,0,0,0-.15,1c0,3.83,0,7.67,0,11.51,0,2.35,0,4.7.07,7.06,0,.12,0,.25,0,.38,0,.36-.07.72-.07,1.09q0,17.91,0,35.82a3.29,3.29,0,0,0,.15,1.7l0,.08.17.24.29.18a1,1,0,0,0,.83.11h.37l24,0c.85,0,1.25-.39,1.24-1.23,0-2.3,0-4.61,0-6.91a1,1,0,0,0-.91-1.23l-.05-.06c-.22-.11-.37-.45-.69-.21A22.56,22.56,0,0,0,25.66,72Q18.6,68,11.5,64a2.9,2.9,0,0,1-1.07-1.1,2.82,2.82,0,0,1,.6-2.29v0a3.17,3.17,0,0,1,2.66,0l0-.07,0,.07a7.22,7.22,0,0,0,2.11,1.2h0a.48.48,0,0,0,.37.21l13.91,7.87c.76.43.9.35.9-.5,0-2.45,0-4.89,0-7.34a1,1,0,0,0-.61-1c-.62-.33-1.23-.69-1.85-1a9,9,0,0,0-2.42-1.32h0a1.49,1.49,0,0,0-.91-.55h0a1.85,1.85,0,0,0-1.11-.62.22.22,0,0,0-.16-.07,21.24,21.24,0,0,0-3.51-2.06l-.06,0a6.31,6.31,0,0,0-1.92-1L17.56,54c0-.15-.1-.27-.28-.3a.24.24,0,0,0-.11-.06,1.79,1.79,0,0,0-1-.53h0a10,10,0,0,0-2.08-1.24l-.06,0c-.89-1.6-.54-2.86.88-3.32a3,3,0,0,1,1.79.22c.79,0,1.19.71,1.8,1,3.71,2,7.37,4.13,11,6.21a3.19,3.19,0,0,0,.68.3c.42.13.74.07.74-.46,0-2.55,0-5.09,0-7.63,0-.22,0-.45-.23-.56a22.21,22.21,0,0,0-3.73-2A23.23,23.23,0,0,0,22.6,43c-.63-.49-1.39-.77-2-1.25-1-.79-1.33-1.69-.74-2.71a2.09,2.09,0,0,1,2.85-.64c1.33.71,2.63,1.48,3.94,2.22,1.11.63,2.2,1.25,3.31,1.85s1,.54,1-.57q0-4.63,0-9.25a2.1,2.1,0,0,1,2.23-2.42,2.27,2.27,0,0,1,1.79,1,9.64,9.64,0,0,1,.19,2.51c0,2.71,0,5.43,0,8.13,0,.34-.18.82.25,1a.86.86,0,0,0,.92-.47h0a.31.31,0,0,0,.37-.19h0a1.32,1.32,0,0,0,.93-.54h0a.33.33,0,0,0,.37-.2h0a.34.34,0,0,0,.37-.19h0a2.31,2.31,0,0,0,1.21-.71c.33-.17.68-.35,1-.54a.91.91,0,0,0,.63-.36l.31-.18Z" transform="translate(0 0)"/><path class="cls-3" d="M39.49,87a2.07,2.07,0,0,1,0-2l.19-.38h0l.23-.2.52-.29L41.73,84h.39a5.32,5.32,0,0,0,.56.06l18,0c.3,0,.62.07.88-.16.91-.36.55-1.15.55-1.74q0-14.22,0-28.43,0-14,0-28c0-.4.16-.87-.34-1.14h0c-.29-.47-.77-.31-1.18-.31L51,24.15a2.54,2.54,0,0,1-1.22-2.37c0-2.66.28-5.34-.24-8a11.55,11.55,0,0,0-4.32-7c-.52-.42-.87-.58-.9.3,0,.5-.27.63-.63.28C42.56,6.26,41.43,5.12,40.31,4c-.18-.19-.09-.47.18-.7,1.08-1,2.13-1.94,3.21-2.91.19-.17.38-.46.7-.29s.2.42.18.66A1.15,1.15,0,0,0,45.21,2a16.08,16.08,0,0,1,8.46,11.27,45,45,0,0,1,.23,5.69c0,1.13.24,1.36,1.44,1.36,2.75,0,5.51,0,8.26,0a4.09,4.09,0,0,1,1.8.33l0,.05a4,4,0,0,1,.65,2.13c0,3.18,0,6.37,0,9.55,0,6.9,0,13.8,0,20.71,0,4.93,0,9.87,0,14.8,0,3.79,0,7.57,0,11.36,0,2.32,0,4.65,0,7l-.09.35a2.36,2.36,0,0,1-2.32,1.35c-7.31,0-14.64,0-21.95,0A2.64,2.64,0,0,1,39.49,87Z" transform="translate(0 0)"/></g></g></g></svg>