<svg xmlns="http://www.w3.org/2000/svg" viewBox="0 0 120.47 130.1"><defs><style>.cls-1{fill:#0a3e27;}</style></defs><g id="Capa_2" data-name="Capa 2"><g id="Capa_1-2" data-name="Capa 1"><path class="cls-1" d="M.5,97.59l-.12-.48a1.15,1.15,0,0,0-.18-1c0-.15-.06-.3-.08-.45a1.14,1.14,0,0,0-.11-1V91.1a26.82,26.82,0,0,1,2.13-7.73c.77-1.5,1.62-3,2.43-4.46a.11.11,0,0,0,.07-.13,18.49,18.49,0,0,0,2.22-3.63l.21-.38a6.41,6.41,0,0,0,1.27-2.09c.08-.16.18-.31.27-.47a31.36,31.36,0,0,0,3-4.95h0A8.33,8.33,0,0,0,13,65l0,0a4.49,4.49,0,0,0,.76-3.2l-.09-.7a3.42,3.42,0,0,0-.84-2.1l0,0a7,7,0,0,0-2.45-2.52l0,0a31.62,31.62,0,0,0-3.15-2.86l-.42-.41a2.31,2.31,0,0,0-.92-1l0,0L3.6,48.8a1.68,1.68,0,0,0-.47-1,25.49,25.49,0,0,1-1.2-4.31V40.67c.41-1.52.81-3,1.22-4.56A.09.09,0,0,0,3.21,36a9.56,9.56,0,0,0,1.13-2.26,13.73,13.73,0,0,1,7.74-5.81,22.76,22.76,0,0,1,7-.68,38.44,38.44,0,0,1,4.16.33c3.65.53,6.23-1,8.1-4,2.54-4.09,5.12-8.16,7.58-12.3A23,23,0,0,1,51.35.68L55.65,0h1l2.88.43a3.62,3.62,0,0,1,.46.06,33.69,33.69,0,0,1,6.68,2.86h0a2.17,2.17,0,0,0,1.12.78,2.35,2.35,0,0,0,1,.84l.31.27.15.14a.25.25,0,0,0,.18.15,2.14,2.14,0,0,0,1,1l.22.22a1.57,1.57,0,0,0,.69.77l.07-.06-.07.06a6.32,6.32,0,0,0,1.26,1.6,3.75,3.75,0,0,0,1,1.42h0a29.69,29.69,0,0,0,2.65,4.86.23.23,0,0,0,.08.2,14.62,14.62,0,0,0,2,3.54l.23.51a30,30,0,0,0,2.45,4.53l.25.47a1.49,1.49,0,0,0,.49.93v0c.29.6.59,1.19.87,1.79.49,1,1,2,2.2,2.3a.53.53,0,0,0,.49.22,3.92,3.92,0,0,0,3.09.4,21,21,0,0,0,5.26-1.82,1.08,1.08,0,0,0,.77-.24l.07,0,0-.08.06,0,3.84-.91,1.21-.12h3.07l1,.1a17.64,17.64,0,0,1,4.88,2c1.2.8,2.14,1.86,3.25,2.73l.23.3a17.74,17.74,0,0,1,3.56,7.66l0,.72c0,.47,0,1,0,1.43,0,.32,0,.64,0,.95a22.87,22.87,0,0,1-1.71,5.29c-.63,1.18-1.23,2.38-1.85,3.57a.52.52,0,0,0-.28.46,19.45,19.45,0,0,0-2.67,4A4.88,4.88,0,0,0,108.6,60a2,2,0,0,0,.23,1.26l0,.07.07.06.18.5a17.92,17.92,0,0,0,2.45,4.56c.08.16.16.32.25.48a.69.69,0,0,0,.38.62c0,.06,0,.09,0,.11a45.43,45.43,0,0,0,3.36,6,1.27,1.27,0,0,0,.41.75,2.75,2.75,0,0,0,.8,1.4l.24.47c.49,1,1,2,1.46,3a24.69,24.69,0,0,1,2,9.47l-.15,1.9c-.13.64-.25,1.29-.38,1.93l-.09.47a32.49,32.49,0,0,1-2.39,5v0l-2.56,2.87-.29.27L112.35,103l0,.07,0-.06-4.19,2.24h0a3,3,0,0,0-1.42.5l-.53.16-.19,0h0a2.13,2.13,0,0,0-1.18.28l-.47.11a8.33,8.33,0,0,0-2.16.35l-6.44.06h-.5l-12.88,0a5.83,5.83,0,0,0-4,.45l-.52.2-.08,0,0,.09-.08,0a4.67,4.67,0,0,0-3,3.31l-.15.45a8.83,8.83,0,0,0-.62,2.86c0,.24-.07.49-.11.73a12.48,12.48,0,0,0-.6,2.64c0,.16-.06.32-.08.48l-1.38,3.83c0,.12-.09.25-.13.38a10.93,10.93,0,0,0-1.37,2.24l-1,1.22a35.63,35.63,0,0,1-3.83,2.86l-.48.23-2.86,1-.46.09-3.35.39h-.73l-2.87-.39-.47-.09a2.17,2.17,0,0,0-1.2-.41l-.38-.13a3.57,3.57,0,0,0-1.44-.76v0a.68.68,0,0,0-.55-.37h0l-.21-.14a.13.13,0,0,0-.14-.1v-.08l-.06,0-.82-.67a1.88,1.88,0,0,0-.88-.74h0a6.51,6.51,0,0,0-1.44-1.65l-.23-.27a8.69,8.69,0,0,0-1.34-2l-.07,0,.06,0c-.58-1.09-1.17-2.17-1.76-3.26-.08-.16-.16-.32-.23-.48-.42-.93-.78-1.9-1.26-2.79a7,7,0,0,0-6.16-3.75c-2.14-.21-4.28-.13-6.42-.14a15.13,15.13,0,0,0-3.08-.17c-5-.12-10,.18-14.84-1.6l-.46-.16a7.4,7.4,0,0,0-1.93-.9l0,0a1.4,1.4,0,0,0-.89-.51l0-.05H8.3a5.38,5.38,0,0,0-1.58-1.09l-.33-.25a1.53,1.53,0,0,0-.74-.61h0a1.91,1.91,0,0,0-.83-.81l0,0-.21-.22,0,0a1,1,0,0,0-.55-.61l0,0a4.23,4.23,0,0,0-1.08-1.49l0,0A29.26,29.26,0,0,1,.5,97.59ZM7,49.91,7,50c0,.31.27.46.5.61l0,0a3,3,0,0,0,1,1.09l.05-.05-.05,0a1.93,1.93,0,0,0,1,.94h0a1.34,1.34,0,0,0,.74.7l.27.23a29.24,29.24,0,0,0,3.08,2.81.11.11,0,0,0,.12.11,1.36,1.36,0,0,0,.57.7c.16.23.33.46.48.7a.44.44,0,0,0,.27.46c.1.24.21.48.31.71a1.53,1.53,0,0,0,.48,1.15A4.17,4.17,0,0,0,17,57.39a1.57,1.57,0,0,1,0-.23s.07,0,.07,0A.8.8,0,0,0,17,57c.06-.26.12-.51.17-.77l1.44-4.54v0c.28-.2.32-.54.44-.83A41.32,41.32,0,0,1,25.51,40c.31-.38.56-.74,1.16-.42A52.26,52.26,0,0,0,38,43.85c.66.17.65.5.5,1a37.19,37.19,0,0,0-1.13,4.63c0,.23-.07.46-.1.7a22.06,22.06,0,0,0-.91,5c0,.24,0,.47-.07.71-.15.65-.66,1.39.25,1.86a4.35,4.35,0,0,1,2,2c.31-3.28.76-6.22,1.29-9.15,0-.15,0-.31.07-.46a.46.46,0,0,0,.15-.49c0-.23.08-.46.13-.69.44-1.46.89-2.93,1.34-4.39l.45.05a10.43,10.43,0,0,0,2.92.52,3.09,3.09,0,0,0,1.44.21,9.46,9.46,0,0,0,2.64.37l1.42.09a22.4,22.4,0,0,0,5,.34c1,0,1.18.34,1.18,1.23,0,5.85,0,11.7,0,17.55l-.22.16c-5.56,0-11.13,0-16.69,0-1,0-1.49-.23-1.33-1.32a1.35,1.35,0,0,0-.2-1.18L36.66,65c-1.12,1.84-1.11,1.84.64,3.06a.24.24,0,0,0,.08.09,3.64,3.64,0,0,1-.08,4.53c-.39.55-.7,1.16-1.06,1.73A1.78,1.78,0,0,0,36,75.64,72.28,72.28,0,0,0,38.42,88c.24.81.09,1.11-.73,1.33a52.32,52.32,0,0,0-10.87,4.19.79.79,0,0,1-1.19-.27c-.64-.81-1.31-1.58-2-2.38a2.86,2.86,0,0,0-1.15-1.46c-.11-.71-.5-.62-.85-.24a3.25,3.25,0,0,0-.41,1h0a2,2,0,0,0-.71,1.2h0a16,16,0,0,0-1.83,2.84,1.66,1.66,0,0,1-1.27.9L17,94.9a1.58,1.58,0,0,1,.1-2q2.5-4.07,4.92-8.17a8.34,8.34,0,0,1,4.77-3.9,8.4,8.4,0,0,0,2.46-1.16c3.17-2.25,4.85-5.62,6.72-8.85a1.09,1.09,0,0,0-.46-1.55,1.11,1.11,0,0,0-1.66.35,19.72,19.72,0,0,0-1.8,3.07l0,0a1.49,1.49,0,0,0-.51.91l-.46.53c-.49.06-1,.25-1.37-.29a1.31,1.31,0,0,1,.11-1.44,9.2,9.2,0,0,0,.4-.84v0a.62.62,0,0,0,.34-.57l1-1.67a.46.46,0,0,0,.26-.46h0c1.7-2.36,3.06-4.92,4.55-7.4a1.14,1.14,0,0,0-.45-1.73,1.11,1.11,0,0,0-1.64.44,15.7,15.7,0,0,0-1.54,2.67A7.12,7.12,0,0,0,31.46,65l-.13.2c-.51.79-1,1.58-1.53,2.38-.3.49-.6,1-1.28.84s-.82-.66-.85-1.25l.31-.7c1.83-2.6,3.32-5.42,5-8.12a1.16,1.16,0,0,0-.54-1.8c-.82-.4-1.35.1-1.75.77-1.6,2.66-3.22,5.31-4.8,8-.38.65-.88,1-1.56.64s-.57-1-.21-1.63c1-1.74,2.07-3.49,3.11-5.22.47-.79,1-1.55,1.41-2.36a1.14,1.14,0,0,0-.44-1.65,1.18,1.18,0,0,0-1.61.3,7.52,7.52,0,0,0-.66,1c-1.3,2.14-2.62,4.28-3.86,6.44-.48.83-1,1.15-1.93.75h0a1.72,1.72,0,0,1,.21-1.89c1.13-1.83,2.23-3.67,3.33-5.52a1.18,1.18,0,0,0-.32-1.77,1.15,1.15,0,0,0-1.74.4,7.53,7.53,0,0,0-.5.93l0,0a4,4,0,0,0-1,1.61c-.09.16-.18.31-.28.46C18.57,59.92,17.28,62,16,64c-2.17,3.6-4.32,7.22-6.47,10.83l0,.09a88.85,88.85,0,0,0-5.66,9.53,14.53,14.53,0,0,0-1.61,5.94l-.06.47A6.57,6.57,0,0,0,2,93.7c.41,5.82,2.7,10.54,8.06,13.38l.43.22a18.27,18.27,0,0,0,8.53,2.3c5.56.17,11.12.24,16.68.43a9.11,9.11,0,0,1,8.56,5.44,51.37,51.37,0,0,0,3.51,6.64c4.69,7,14.06,8.09,19.65,2.3,2.48-2.56,3.46-5.84,4.15-9.23.6-3,.81-6.12,3.21-8.41-.46-.4-.91-.26-1.33-.26-1.75,0-3.5,0-5.25,0A3.66,3.66,0,0,1,65,105.18c-.35-.47-.6-.29-1,0a12.86,12.86,0,0,1-3.78,1.74c-.47.13-.87.17-1-.46q0-7.29,0-14.58c.21-2.16.21-2.23,2.49-2.17,1,0,.82-.65.94-1.15s.9-1,.5-1.44-1.13-.23-1.71-.25c-2,0-2,0-2.22-1.93.08-5.34.1-10.68,0-16,.07-.69.36-1,1.14-1,5.36,0,10.71,0,16.07,0,.84,0,1.22.13,1.08,1.13a30.4,30.4,0,0,0-.08,3.45l-.06.94A19.38,19.38,0,0,0,77,76.55c0,.31-.06.63-.08,1-.17.89-.35,1.78-.5,2.68-.28,1.69-.27,1.7,1.48,1.66.48,0,1,.16,1.16-.63a69.45,69.45,0,0,0,1.12-10.66c0-.31,0-.63,0-.94,0-.55.07-1.09.09-1.64h0l1.16-.13H98.35c1.49.17,1.43.16,1.34,1.72-.12,2-.49,3.86-.74,5.79,0,.23-.08.46-.11.7a1.69,1.69,0,0,0-.34,1.21l-.15.7c-.56,1.6-1.12,3.19-1.67,4.79-.08.16-.15.32-.23.49-.43.84-.81,1.72-1.3,2.52s-.26,1.06.64,1.06c2.38,0,4.76,0,7.14,0,.71,0,1.33.21,1.33,1s-.67,1-1.36,1h-.24c-2.65,0-5.31-.11-8,0-2.87.09-5.52-.35-7.76-2.29a.61.61,0,0,0-.5-.44,8.51,8.51,0,0,0-4.79-1.85l-.47,0c-2.3-.6-4.65-.26-7-.34a1.18,1.18,0,0,0-1.3,1.37,1.24,1.24,0,0,0,1.42,1.14l4.05,0c.77,0,1.53.12,1.49,1.1s-.86.87-1.54.87l-11.91,0c-1.23,0-2,.46-1.9,1.27.11,1.08.86,1.27,1.8,1.27,2.7,0,5.4,0,8.1,0,.84,0,1.31.32,1.32,1.14s-.62.88-1.25.88l-3.33,0a64.91,64.91,0,0,0-6.69,0l-.21.09h0c-.95.77-1,1.16-.11,2h0c.32.46.79.29,1.2.3l8.57.06A6.34,6.34,0,0,1,75,95.5a.83.83,0,0,1,.74.92c0,.52-.2,1-.81,1l-1,0c-2.66,0-5.32-.06-8,0-1.41,0-1.86.83-1.18,2l0,0c1,.92,2.13.43,3.22.48l7.14.08a1.47,1.47,0,0,1,.26,1.91h0c-2.57.26-5.15-.05-7.72,0-.82,0-1.41.38-1.39,1.27a1.26,1.26,0,0,0,1.41,1.29c3.76,0,7.51,0,11.28,0h2.61a1.88,1.88,0,0,0,.45.12l13.4,0,4.76,0a7.63,7.63,0,0,0,3.35-.41l.7-.12a17.12,17.12,0,0,0,9.15-4.83l0,0,0,0a13.17,13.17,0,0,0,4.41-7.26l.07-.46a4.74,4.74,0,0,0,.36-2.17c0-.48,0-1,0-1.42a9.32,9.32,0,0,0-.45-3.59,1,1,0,0,0-.16-.74s0-.07,0-.08a.65.65,0,0,0-.1-.15c0-.15-.07-.3-.1-.45a5.76,5.76,0,0,0-.85-2.41c-.07-.17-.13-.33-.19-.5a.17.17,0,0,0,0-.07l-.11-.09c0-.1-.07-.2-.1-.3s-.08-.14-.13-.22-.17-.32-.26-.48a8.57,8.57,0,0,0-1.44-2.55l-.18-.34a2.74,2.74,0,0,0-.77-1.35l0,0a7.51,7.51,0,0,0-1.36-2.42,1.73,1.73,0,0,0-.52-.94.88.88,0,0,0-.41-.75h0a3.83,3.83,0,0,0-1-1.68c-.82-1.5-1.67-3-2.46-4.5-1.91-3.67-2.08-7.28.46-10.79a40,40,0,0,0,3.6-5.91,12.48,12.48,0,0,0,1.45-7.86,12.83,12.83,0,0,0-17.13-9.86,8.61,8.61,0,0,0-2.16.62c-2.82,1-5.54,2.38-8.87,1.57.24.5.35.79.51,1,1.1,1.85,1.71,4,3.57,5.38a.63.63,0,0,0,.4.48A64.41,64.41,0,0,1,95,46.91,62.51,62.51,0,0,1,98.33,55l.09.46c.1.54.19,1.09.32,1.63a49.13,49.13,0,0,1,1,6.95c.06.6.06,1.07-.8,1.07q-8.92,0-17.86,0c-.59,0-.88-.22-.91-.8,0-.32,0-.63,0-.94A16.74,16.74,0,0,0,80,59.59c-.26-2.41-.57-4.82-.9-7.23-.06-.42,0-1-.69-1.11s-2,1.79-1.94,2.34a89.24,89.24,0,0,1,1,10.2c.08,1.2-.32,1.38-1.35,1.37-5.25,0-10.49,0-15.74,0A11.76,11.76,0,0,1,59.26,65q0-8.46,0-16.93c0-.4,0-.8,0-1.21l0-.42,1.89-.28.47,0,2.12,0c.23,0,.6-.05.57-.29a5.31,5.31,0,0,0-1-2.11c-.33-.53-.86-.4-1.36-.15l-.31,0a.9.9,0,0,0-.72,0h-.7c-1.3,0-.76-1.09-1-1.73V26.57a.65.65,0,0,0-.26-.8l-.11-.2a5.26,5.26,0,0,0-1-1.89l-.4-.78a3.19,3.19,0,0,0-.78-1.4h0L55,18.13c-.31-.61-.29-1.18.38-1.51s1.06,0,1.37.57.75,1.28,1.12,1.93v0l.35.75c1.45,3,3.37,5.67,4.41,8.83,0,.32,0,.63.07,1v1l-.12,1.42a5.91,5.91,0,0,0-.32,3.38c.48,3.41,2.29,6.25,3.87,9.19.39.71.91,1.34,1.79.87s.85-1.3.37-2.15c-.69-1.21-1.35-2.43-2-3.68-.26-.52-.33-1.1.35-1.43a1,1,0,0,1,1.4.5c.3.5.63,1,.94,1.5h0c1.6,3.41,3.51,6.67,5.32,10A1.22,1.22,0,0,0,76.4,49,35.15,35.15,0,0,0,74,44.74l-.27-.47A19.05,19.05,0,0,0,72,41l-.15-.55a1.33,1.33,0,0,1,1.64-.93l.35.28c1.47,3.05,3.11,6,4.78,8.94.37.65.92,1,1.69.59a1.18,1.18,0,0,0,.48-1.74C79.44,45,78.17,42.42,76.61,40c-.07-.16-.15-.31-.23-.47a5.26,5.26,0,0,0-.25-.66,1,1,0,0,1,.34-1.35,1,1,0,0,1,1.43.37c.17.27.31.55.46.84l3.72,6.92c.39.73,1,1.1,1.75.71a1.22,1.22,0,0,0,.47-1.91,39.86,39.86,0,0,0-2.18-3.81.25.25,0,0,0-.09-.21,38.29,38.29,0,0,0-1.86-3.6c-.3-.63-.26-1.18.4-1.52s1.05,0,1.38.55a13,13,0,0,0,1.35,2.23c.08.16.16.32.23.48a4.43,4.43,0,0,0,1.13,2l0,0c0,.56.34.95.59,1.37a1.24,1.24,0,1,0,2.18-1.17,28.66,28.66,0,0,0-2.21-3.89L85,36.36c-1.24-2.66-2.68-5.21-4.16-7.74l0-.07a5.87,5.87,0,0,0-1-1.81h0a16.18,16.18,0,0,0-1.76-3.28.47.47,0,0,0-.28-.47,2.45,2.45,0,0,0-.69-1.32.16.16,0,0,0,0-.11,8,8,0,0,0-1.34-2.43h0a1.42,1.42,0,0,0-.5-.95L75,17.72a14.17,14.17,0,0,0-1.66-3.09l-.17-.28-.08-.17v0a1.12,1.12,0,0,0-.43-.77,18.91,18.91,0,0,0-3.8-5.44C65.09,4.16,60.63,2,55.29,2.2c-5.76.25-10,3.4-13.16,8s-6,9.46-8.91,14.25c-2.49,4.1-6,5.82-10.74,5.14a26.51,26.51,0,0,0-7.6-.12c-3.49.51-6.46,1.89-8.38,5a1.56,1.56,0,0,0-.64,1,.22.22,0,0,0-.08.21c-.06.08-.11.17-.16.25a2,2,0,0,0-.41,1,10.28,10.28,0,0,0-.84,8l.21.79,0,0,.07,0c.05.11.1.23.16.34s0,.06,0,.07l.11.12h0A5,5,0,0,0,6,48.54H6a.85.85,0,0,0,.49.7c.11.16.2.32.31.48Z"/><path class="cls-1" d="M56.49,86.77a86.46,86.46,0,0,0-14.17,1.5c-.69.13-1-.08-1.19-.75a74.45,74.45,0,0,1-2.78-17.86c-.06-1.65-.06-1.65,1.56-1.81H53.39l3.09.13,0,6.44q0,6,.08,11.93A3.34,3.34,0,0,1,56.49,86.77Z"/><path class="cls-1" d="M46,34.3l.14-.24a33.91,33.91,0,0,1,5-5.55l.28-.23a17.34,17.34,0,0,1,4-1.86c.78-.2,1.08-.08,1.07.79q0,7.65,0,15.31c0,.78-.24,1-1,1-1.7-.12-3.41-.16-5.12-.23l-1.17-.09c-1.88-.31-3.75-.66-5.63-.91-1.05-.14-1.18-.54-.79-1.47C43.74,38.57,44.94,36.46,46,34.3Z"/><path class="cls-1" d="M44.2,26.82a2.82,2.82,0,0,0,1.17-.37A9.89,9.89,0,0,0,48,25.72l.44-.13c.88.06,1.69-.55,2.6-.24l0,.09a4,4,0,0,0-1.64,1.22h-.06l0,.06-.23-.1,0,.17a.23.23,0,0,0-.09.18,8.7,8.7,0,0,0-2.4,2.4h0a11,11,0,0,0-2.39,3.12,1.25,1.25,0,0,0-.46.73A2.47,2.47,0,0,0,43,34.42h0a21.68,21.68,0,0,0-2.5,5.06,2.44,2.44,0,0,0-.1.24c-.15.09-.23.2-.11.37v.12a.14.14,0,0,0-.1.11c-.32,1-.94,1-1.88.78a64.43,64.43,0,0,1-8.45-3c-1.81-.82-1.81-.84-.42-2.27a.63.63,0,0,0,.1-.2l.06-.06a3.55,3.55,0,0,0,1.35-1.2h0A49.56,49.56,0,0,1,44.2,26.82Z"/><path class="cls-1" d="M34.46,101.62c-1.77-1.52-3.55-3-5.29-4.57-1.13-1-1.1-1,.27-1.7a55.61,55.61,0,0,1,9-3.35c.83-.24,1.22-.14,1.57.76,1.89,4.91,4.37,9.46,8.29,13.08.61.56,1.26,1.07,1.93,1.64-.76.38-1.44,0-2.12-.16s-1.54-.39-2.3-.61-1.44-.44-2.16-.68-1.41-.51-2.12-.77l-.7-.3c-1-.53-2-1.09-3-1.57s-2-1.43-3.2-1.72A.27.27,0,0,0,34.46,101.62Z"/><path class="cls-1" d="M105.45,43.42l.47,0c.63-.1,1.19,0,1.22.75s-.51.8-1.07.85c-2.57.24-4.85-.37-6.47-2.5a7.73,7.73,0,0,1-1-7.38c.19-.61.6-.88,1.18-.66s.49.72.33,1.22a6.14,6.14,0,0,0,.07,4.65A5,5,0,0,0,105.45,43.42Z"/><path class="cls-1" d="M18.36,39.89A7.4,7.4,0,0,1,11.74,47c-.51,0-1,0-1.06-.66s.38-.83.88-.92a6.54,6.54,0,0,0,3-1.26A5.1,5.1,0,0,0,16,37.27c-.17-.31-.38-.6-.57-.9a.79.79,0,0,1,.14-1.16c.46-.35.82-.13,1.13.24A7.33,7.33,0,0,1,18.36,39.89Z"/><path class="cls-1" d="M56.37,114.58a7.46,7.46,0,0,1,8.33,1.76,6.42,6.42,0,0,1,.56.61c.32.42.48.9,0,1.28s-.86.12-1.21-.29a6.35,6.35,0,0,0-4.25-2.39c-2.61-.24-4.56,1.19-5.62,4l-.26.18c-1.1-.11-1.34-.45-1-1.42a11.08,11.08,0,0,1,2-2.89l.05,0a1.76,1.76,0,0,0,.79-.6Z"/><path class="cls-1" d="M109,42.52a1.61,1.61,0,0,1-1.53-1.65,1.65,1.65,0,0,1,1.63-1.55A1.58,1.58,0,0,1,110.62,41,1.6,1.6,0,0,1,109,42.52Z"/><path class="cls-1" d="M8.05,42.21a1.46,1.46,0,0,1,1.57,1.56,1.41,1.41,0,0,1-1.45,1.55,1.48,1.48,0,0,1-1.65-1.48A1.51,1.51,0,0,1,8.05,42.21Z"/><path class="cls-1" d="M104.81,33.17c0,1.18-.55,1.75-1.55,1.74a1.36,1.36,0,0,1-1.53-1.44,1.48,1.48,0,0,1,1.6-1.65A1.38,1.38,0,0,1,104.81,33.17Z"/><path class="cls-1" d="M11.86,33.47a1.59,1.59,0,0,1,1.59,1.58,1.56,1.56,0,0,1-1.61,1.56,1.45,1.45,0,0,1-1.49-1.52A1.51,1.51,0,0,1,11.86,33.47Z"/><path class="cls-1" d="M54,124.31c-.64-.77-.93-1.6-.14-2.42s1.63-.52,2.41.1c.07.17.15.33.23.49C56.41,124.29,55.72,124.8,54,124.31Z"/><path class="cls-1" d="M56.52,98.35c0,2.51,0,5,0,7.53,0,1.09-.34,1.17-1.26.9a15.35,15.35,0,0,1-7.53-5.61A35.71,35.71,0,0,1,42.68,92c-.36-.91.09-1,.74-1.12a80.66,80.66,0,0,1,12.2-1.29c.81,0,.92.33.92,1,0,2.59,0,5.18,0,7.77Z"/><path class="cls-1" d="M65.11,123.34c-.24,0-.48,0-.71,0a1.46,1.46,0,0,1-1.48-1.28,1.38,1.38,0,0,1,.86-1.65,1.43,1.43,0,0,1,1.82.4,1.52,1.52,0,0,1,0,2,5.9,5.9,0,0,1-.49.51A0,0,0,0,1,65.11,123.34Z"/><path class="cls-1" d="M60.82,113.42l-.17.09c0-.08-.06-.16-.1-.24s.15-.06.19,0S60.79,113.35,60.82,113.42Z"/></g></g></svg>