<?xml version="1.0" encoding="utf-8"?>
<!-- Generator: Adobe Illustrator 27.2.0, SVG Export Plug-In . SVG Version: 6.00 Build 0)  -->
<svg version="1.1" id="Capa_1" xmlns="http://www.w3.org/2000/svg" xmlns:xlink="http://www.w3.org/1999/xlink" x="0px" y="0px"
	 viewBox="0 0 48 48" style="enable-background:new 0 0 48 48;" xml:space="preserve">
<style type="text/css">
	.st0{fill:#CB6E5C;}
</style>
<path class="st0" d="M24,22.4c-1.5,0-2.7-0.5-3.7-1.5c-1-1-1.5-2.3-1.5-3.8c0-1.5,0.5-2.7,1.5-3.7c1-1,2.3-1.5,3.7-1.5
	s2.7,0.5,3.7,1.5c1,1,1.5,2.2,1.5,3.7c0,1.5-0.5,2.8-1.5,3.8C26.7,21.9,25.5,22.4,24,22.4z M10.6,36.4V34c0-0.8,0.2-1.5,0.7-2.1
	c0.5-0.6,1.1-1.1,1.9-1.5c1.9-0.8,3.7-1.5,5.5-1.9s3.6-0.6,5.3-0.6s3.5,0.2,5.3,0.6c1.8,0.4,3.6,1.1,5.5,1.9
	c0.8,0.4,1.4,0.9,1.9,1.5c0.5,0.6,0.7,1.3,0.7,2.1v2.4H10.6z M11.7,35.3h24.6V34c0-0.5-0.2-1-0.5-1.5c-0.4-0.5-0.8-0.9-1.5-1.2
	c-1.7-0.8-3.4-1.4-5.1-1.8C27.5,29.2,25.8,29,24,29c-1.8,0-3.5,0.2-5.2,0.6c-1.7,0.4-3.4,1-5.1,1.8c-0.6,0.3-1.1,0.7-1.5,1.2
	c-0.4,0.5-0.5,1-0.5,1.5V35.3z M24,21.3c1.2,0,2.1-0.4,3-1.2c0.8-0.8,1.2-1.8,1.2-3S27.8,15,27,14.2c-0.8-0.8-1.8-1.2-3-1.2
	c-1.2,0-2.1,0.4-2.9,1.2c-0.8,0.8-1.2,1.8-1.2,2.9s0.4,2.1,1.2,3C21.9,20.9,22.8,21.3,24,21.3z"/>
</svg>
